<svg xmlns="http://www.w3.org/2000/svg" xmlns:svg="http://www.w3.org/2000/svg" xmlns:xlink="http://www.w3.org/1999/xlink" id="svg3136" width="63.936" height="63.845" version="1.1"><defs id="defs3138"><linearGradient id="linearGradient4122" x1="61.959" x2="6.223" y1="3" y2="58.091" gradientTransform="matrix(1.01883,0,0,1.01591,-0.648953,-0.463736)" gradientUnits="userSpaceOnUse" xlink:href="#linearGradient7567"/><linearGradient id="linearGradient7567"><stop id="stop7569" offset="0" stop-color="#9bdfee" stop-opacity="1"/><stop id="stop7571" offset="1" stop-color="#66b7c9" stop-opacity="1"/></linearGradient></defs><metadata id="metadata3141"/><g id="layer1" transform="translate(-308.03215,-729.01122)"><g id="g3852" display="inline" transform="translate(308,728.88816)"><rect id="rect3854" width="63.936" height="63.845" x=".032" y=".123" fill="url(#linearGradient4122)" fill-opacity="1" stroke="none" ry="2.993"/><path id="path3912" fill="#fff" fill-opacity="1" stroke="none" d="m 33.587862,23.141846 c 0.03697,-4.271199 3.529425,-7.703723 7.800624,-7.666756 4.2712,0.03697 7.703723,3.529425 7.666757,7.800624 -0.03697,4.2712 -3.529425,7.703723 -7.800625,7.666757 -4.258571,-0.03686 -7.686012,-3.509585 -7.666969,-7.768273" display="inline" transform="matrix(1.14286,0,0,1.14286,-6.74277,-2.74101)"/><path id="path3912-9" fill="#fff" fill-opacity="1" stroke="none" d="m 33.587862,23.141846 c 0.03697,-4.271199 3.529425,-7.703723 7.800624,-7.666756 4.2712,0.03697 7.703723,3.529425 7.666757,7.800624 -0.03697,4.2712 -3.529425,7.703723 -7.800625,7.666757 -4.258571,-0.03686 -7.686012,-3.509585 -7.666969,-7.768273" display="inline" transform="matrix(1.14286,0,0,1.14286,-22.9178,14.4063)"/><path font-family="Sans" style="text-indent:0;text-align:start;line-height:normal;text-transform:none;block-progression:tb;marker:none;-inkscape-font-specification:Sans" id="path3910" fill="#000" fill-opacity="1" stroke="#fff" stroke-dasharray="none" stroke-miterlimit="4" stroke-opacity="1" stroke-width="1.5" d="m 41.5625,11.75 c -2.751489,-0.03683 -5.529594,0.898724 -7.78125,2.71875 -2.251656,1.820026 -3.9375,4.651732 -3.9375,8.0625 l 0,6.875 -4.375,0 c -4.512243,0 -7.937731,1.390943 -10.09375,3.65625 -2.156019,2.265307 -2.9375,5.188477 -2.9375,7.78125 0,5.593668 4.326553,11.323269 10.75,11.6875 2.942605,0.166856 5.837952,-0.541401 8.0625,-2.34375 2.224548,-1.802349 3.59375,-4.702161 3.59375,-8.09375 l 0,-7.6875 7.59375,0 c 3.044403,0 5.904124,-0.771613 8,-2.71875 2.095876,-1.947137 3.15625,-4.899411 3.15625,-8.34375 0,-3.70713 -1.755395,-6.760256 -4.09375,-8.6875 C 47.161645,12.729006 44.289539,11.786504 41.5625,11.75 z m -0.0625,5 c 1.536241,0.02056 3.443705,0.653105 4.8125,1.78125 1.368795,1.128145 2.28125,2.590254 2.28125,4.8125 0,2.485038 -0.639653,3.830145 -1.5625,4.6875 -0.922847,0.857355 -2.38893,1.375 -4.59375,1.375 l -7.59375,0 0,-6.875 c 0,-1.848827 0.783782,-3.153906 2.0625,-4.1875 C 38.184968,17.310156 39.988209,16.729763 41.5,16.75 z m -16.03125,17.65625 4.375,0 0,7.6875 c 0,2.153078 -0.690576,3.360395 -1.75,4.21875 -1.059424,0.858355 -2.672272,1.329476 -4.625,1.21875 -3.367219,-0.190933 -6.03125,-3.868742 -6.03125,-6.6875 0,-1.61344 0.471073,-3.165749 1.5625,-4.3125 1.091427,-1.146751 2.93435,-2.125 6.46875,-2.125 z" baseline-shift="baseline" color="#000" direction="ltr" display="inline" enable-background="accumulate" font-size="medium" font-stretch="normal" font-style="normal" font-variant="normal" font-weight="normal" letter-spacing="normal" overflow="visible" text-anchor="start" text-decoration="none" visibility="visible" word-spacing="normal" writing-mode="lr-tb"/><rect id="rect4008" width="6.562" height="1.25" x="29.344" y="28.906" fill="#fff" fill-opacity="1" stroke="none" ry="0"/><rect id="rect4008-8" width="6.562" height="1.234" x="29.062" y="33.656" fill="#fff" fill-opacity="1" stroke="none" display="inline" rx="0" ry="0"/></g></g></svg>