<svg xmlns="http://www.w3.org/2000/svg" xmlns:svg="http://www.w3.org/2000/svg" xmlns:xlink="http://www.w3.org/1999/xlink" id="svg3132" width="63.936" height="63.845" version="1.1"><defs id="defs3134"><linearGradient id="linearGradient3779" x1="61.959" x2="2.42" y1="3" y2="62.151" gradientTransform="matrix(1.01883,0,0,1.01591,-0.648953,-0.463736)" gradientUnits="userSpaceOnUse" xlink:href="#linearGradient7567"/><linearGradient id="linearGradient7567"><stop id="stop7569" offset="0" stop-color="#9bdfee" stop-opacity="1"/><stop id="stop7571" offset="1" stop-color="#66b7c9" stop-opacity="1"/></linearGradient></defs><metadata id="metadata3137"/><g id="layer1" transform="translate(-343.03215,-500.43979)"><g id="g5228" display="inline" transform="translate(343,500.31673)"><rect id="rect2993" width="63.936" height="63.845" x=".032" y=".123" fill="url(#linearGradient3779)" fill-opacity="1" stroke="none" ry="2.993"/><path enable-background="accumulate" style="text-indent:0;text-align:start;line-height:normal;text-transform:none;block-progression:tb;marker:none;-inkscape-font-specification:Sans" id="path5114" fill="#fff" fill-opacity="1" fill-rule="nonzero" stroke="#000" stroke-dasharray="none" stroke-miterlimit="4" stroke-opacity="1" stroke-width="3" d="m 50.655316,31.201809 c -0.01275,-0.166722 -0.115247,-0.323884 -0.262677,-0.402771 L 35.22743,22.060655 20.062221,13.322273 c -0.303971,-0.178298 -0.757566,0.08542 -0.753007,0.437794 l 0.01751,17.511789 0.01751,17.494277 c -0.0046,0.352375 0.449036,0.616093 0.753007,0.437795 l 15.147697,-8.773406 15.147697,-8.755895 c 0.167875,-0.09003 0.274922,-0.282718 0.262681,-0.472818 z" baseline-shift="baseline" color="#000" direction="ltr" display="inline" font-family="Sans" font-size="medium" font-stretch="normal" font-style="normal" font-variant="normal" font-weight="normal" letter-spacing="normal" overflow="visible" text-anchor="start" text-decoration="none" visibility="visible" word-spacing="normal" writing-mode="lr-tb"/><path id="rect4130" fill="#000" fill-opacity="1" stroke="none" d="m 19.499998,13.250003 30.124998,17.749999 -6.875,3.875 -23.374998,-14.874999 z" opacity=".333"/><path id="rect4130-0" fill="#000" fill-opacity="1" stroke="none" d="M 43.499998,26.875002 17.75,42.250001 l 3.875,5.375 26.374998,-16.374999 z" display="inline" opacity=".333"/></g></g></svg>