<svg xmlns="http://www.w3.org/2000/svg" xmlns:svg="http://www.w3.org/2000/svg" xmlns:xlink="http://www.w3.org/1999/xlink" id="svg3136" width="63.936" height="63.845" version="1.1"><defs id="defs3138"><linearGradient id="linearGradient3845" x1="61.959" x2="6.223" y1="3" y2="58.091" gradientTransform="matrix(1.01883,0,0,1.01591,-0.648953,-0.463736)" gradientUnits="userSpaceOnUse" xlink:href="#linearGradient7567"/><linearGradient id="linearGradient7567"><stop id="stop7569" offset="0" stop-color="#9bdfee" stop-opacity="1"/><stop id="stop7571" offset="1" stop-color="#66b7c9" stop-opacity="1"/></linearGradient></defs><metadata id="metadata3141"/><g id="layer1" transform="translate(-343.03215,-500.43979)"><g id="g3837" display="inline" transform="translate(343,500.31673)"><rect id="rect3839" width="63.936" height="63.845" x=".032" y=".123" fill="url(#linearGradient3845)" fill-opacity="1" stroke="none" ry="2.993"/><path id="path3843" fill="#000" fill-opacity="1" stroke="none" d="m 29.225712,24.294074 c -2.485188,-0.02151 -4.509741,1.983562 -4.53125,4.46875 0.0016,1.38029 0.623947,2.326286 1.5,3.34375 2.083788,2.415978 5.71875,5.0625 5.71875,5.0625 0,0 3.930641,-2.717405 6.0625,-5.15625 0.06281,-0.06173 0.128379,-0.122189 0.1875,-0.1875 0.738163,-0.943054 1.15625,-1.89641 1.15625,-3 0.02151,-2.485188 -1.983562,-4.509741 -4.46875,-4.53125 -1.083854,-0.0094 -2.06146,0.368419 -2.84375,1 -0.760783,-0.610819 -1.729918,-0.990901 -2.78125,-1 z"/><path id="path3847" fill="#fff" fill-opacity="1" stroke="#000" stroke-dasharray="none" stroke-linecap="round" stroke-linejoin="round" stroke-miterlimit="4" stroke-opacity="1" stroke-width="1.949" d="M 11.049293,28.559403 C 11.145195,17.478691 20.205631,8.5737432 31.286344,8.6696452 42.367056,8.7655473 51.272004,17.825983 51.176102,28.906695 51.0802,39.987408 42.019764,48.892356 30.939052,48.796454 19.891101,48.700835 10.99934,39.691586 11.048743,28.643332" transform="matrix(0.91578,0,0,0.91578,3.72516,3.61313)"/><path id="path3849" fill="#000" fill-opacity="1" stroke="none" d="m -5.3910966,10.795223 c 0.340788,10.324044 8.453524,3.652192 11.0081019,-1.7724129 0.5601101,-1.1893847 12.5207287,2.0854189 15.5643767,6.6766909 1.434734,2.164261 4.788416,3.796175 8.516511,-0.05293 C 32.231364,13.03086 27.432572,32.356612 12.149052,32.356612 -8.4076393,29.817192 -5.3910966,10.795223 -5.3910966,10.795223 z" transform="translate(20.0642,15.9099)"/><path id="path3847-5" fill="none" stroke="#000" stroke-dasharray="none" stroke-linecap="round" stroke-linejoin="round" stroke-miterlimit="4" stroke-opacity="1" stroke-width="1.949" d="M 11.049293,28.559403 C 11.145195,17.478691 20.205631,8.5737432 31.286344,8.6696452 42.367056,8.7655473 51.272004,17.825983 51.176102,28.906695 51.0802,39.987408 42.019764,48.892356 30.939052,48.796454 19.891101,48.700835 10.99934,39.691586 11.048743,28.643332" display="inline" transform="matrix(0.91578,0,0,0.91578,3.68096,3.65733)"/><path id="path3873" fill="#000" fill-opacity="1" stroke="#000" stroke-linecap="butt" stroke-linejoin="miter" stroke-miterlimit="4" stroke-opacity="1" stroke-width="2" d="m 40.987852,34.810034 c -1.615352,3.05697 -13.466144,-0.441942 -13.466144,-0.441942 0,0 -11.728483,0.967491 -9.40028,-0.441941 3.636205,-1.716525 11.29704,-8.249795 9.40028,-17.523847 7.735286,2.072664 14.536126,16.382844 13.466144,18.40773 z"/></g></g></svg>