<svg xmlns="http://www.w3.org/2000/svg" xmlns:svg="http://www.w3.org/2000/svg" xmlns:xlink="http://www.w3.org/1999/xlink" id="svg3130" width="63.936" height="63.845" version="1.1"><defs id="defs3132"><linearGradient id="linearGradient5423" x1="61.959" x2="6.223" y1="3" y2="58.091" gradientTransform="matrix(1.01883,0,0,1.01591,-0.648953,-0.463736)" gradientUnits="userSpaceOnUse" xlink:href="#linearGradient7567"/><linearGradient id="linearGradient7567"><stop id="stop7569" offset="0" stop-color="#9bdfee" stop-opacity="1"/><stop id="stop7571" offset="1" stop-color="#66b7c9" stop-opacity="1"/></linearGradient></defs><metadata id="metadata3135"/><g id="layer1" transform="translate(-343.03215,-500.43979)"><g id="g5413" display="inline" transform="translate(343,500.31673)"><rect id="rect5415" width="63.936" height="63.845" x=".032" y=".123" fill="url(#linearGradient5423)" fill-opacity="1" stroke="none" ry="2.993"/><path font-family="Sans" style="text-indent:0;text-align:start;line-height:normal;text-transform:none;block-progression:tb;marker:none;-inkscape-font-specification:Sans" id="path5417" fill="#fff" fill-opacity="1" stroke="#000" stroke-dasharray="none" stroke-miterlimit="4" stroke-opacity="1" stroke-width="2.2" d="m 31.992036,11.99632 c -9.664621,-0.08365 -17.572604,7.679129 -17.65625,17.34375 l 0,0.0625 c -0.01918,4.288372 1.514339,8.225752 4.0625,11.28125 l 0,4 0,5.96875 c -0.0016,0.120528 0.177279,0.217236 0.28125,0.15625 l 5.15625,-3 2.75,-1.59375 c 1.60856,0.504239 3.321052,0.765908 5.09375,0.78125 9.664621,0.08365 17.572604,-7.679129 17.65625,-17.34375 0.08365,-9.664621 -7.679129,-17.572604 -17.34375,-17.65625 z" baseline-shift="baseline" color="#000" direction="ltr" display="inline" enable-background="accumulate" font-size="medium" font-stretch="normal" font-style="normal" font-variant="normal" font-weight="normal" letter-spacing="normal" overflow="visible" text-anchor="start" text-decoration="none" visibility="visible" word-spacing="normal" writing-mode="lr-tb"/><path id="path5428" fill="#000" fill-opacity="1" stroke="none" d="m 29.225712,24.294074 c -2.485188,-0.02151 -4.509741,1.983562 -4.53125,4.46875 0.0016,1.38029 0.623947,2.326286 1.5,3.34375 2.083788,2.415978 5.71875,5.0625 5.71875,5.0625 0,0 3.930641,-2.717405 6.0625,-5.15625 0.06281,-0.06173 0.128379,-0.122189 0.1875,-0.1875 0.738163,-0.943054 1.15625,-1.89641 1.15625,-3 0.02151,-2.485188 -1.983562,-4.509741 -4.46875,-4.53125 -1.083854,-0.0094 -2.06146,0.368419 -2.84375,1 -0.760783,-0.610819 -1.729918,-0.990901 -2.78125,-1 z"/></g></g></svg>