<svg xmlns="http://www.w3.org/2000/svg" xmlns:svg="http://www.w3.org/2000/svg" xmlns:xlink="http://www.w3.org/1999/xlink" id="svg3344" width="64" height="64" version="1.1"><defs id="defs3346"><linearGradient id="linearGradient3294" x1="46.701" x2="2.45" y1="9.418" y2="62.628" gradientTransform="translate(-15.210989,-23.3536)" gradientUnits="userSpaceOnUse" xlink:href="#linearGradient7586"/><linearGradient id="linearGradient7586"><stop id="stop7588" offset="0" stop-color="#9bdfee" stop-opacity="1"/><stop id="stop7590" offset="1" stop-color="#4c9bad" stop-opacity="1"/></linearGradient><linearGradient id="linearGradient3342" x1="46.701" x2="2.45" y1="9.418" y2="62.628" gradientTransform="translate(0.18182005,-0.954545)" gradientUnits="userSpaceOnUse" xlink:href="#linearGradient7586"/><linearGradient id="linearGradient3378" x1="46.701" x2="2.45" y1="9.418" y2="62.628" gradientTransform="matrix(1.0010058,0,0,1.0024311,0.18178771,-0.95484417)" gradientUnits="userSpaceOnUse" xlink:href="#linearGradient7586"/></defs><metadata id="metadata3349"/><g id="layer1"><g id="g3373" transform="translate(-0.21397214,0.83148575)"><rect id="rect4219" width="64" height="64" x=".214" y="-.831" fill="url(#linearGradient3378)" fill-opacity="1" stroke="none" display="inline" ry="3"/><path id="path3172" fill="#fff" fill-opacity="1" stroke="none" d="m 25.682137,23.972974 c 0.04033,-4.625211 3.850479,-8.342235 8.510207,-8.302204 4.659728,0.04003 8.40449,3.821956 8.364161,8.447168 -0.04033,4.625211 -3.850479,8.342235 -8.510207,8.302204 -4.645951,-0.03991 -8.385168,-3.800472 -8.364393,-8.412135" display="inline"/><path id="path3207" fill="#000" fill-opacity="1" stroke="none" d="m 40.416271,24.271522 c -2.5e-5,-1.9325 -0.525168,-3.507927 -1.575429,-4.726285 -1.050308,-1.260314 -2.604729,-1.890485 -4.663268,-1.890515 l -4.285165,0 0,13.170583 4.285165,0 c 2.058539,1.6e-5 3.61296,-0.609149 4.663268,-1.827497 1.050261,-1.218312 1.575404,-2.793739 1.575429,-4.726286 M 29.892409,37.31607 c -1.5e-5,3.781035 0.357082,6.196689 1.071291,7.246971 0.714178,1.050288 2.352622,1.57543 4.915337,1.575428 l 0,1.512412 -17.329714,0 0,-1.512412 c 2.52068,2e-6 4.138118,-0.52514 4.85232,-1.575428 0.756197,-1.092293 1.134299,-3.507948 1.134309,-7.246971 l 0,-12.099291 c -1e-5,-3.781002 -0.357106,-6.196657 -1.071292,-7.246971 -0.714202,-1.050255 -2.352646,-1.575397 -4.915337,-1.575428 l 0,-1.512412 15.691268,0 c 3.823017,3.3e-5 6.78482,0.861266 8.885417,2.583703 2.100541,1.722497 3.150826,3.991112 3.150857,6.805851 -3.1e-5,2.730763 -1.071322,4.978372 -3.213874,6.742834 -2.100597,1.722483 -5.041394,2.583717 -8.8224,2.583703 l -4.348182,0 0,3.718011" display="inline" font-family="MrsEavesSmallCaps" font-size="75.621" font-stretch="normal" font-style="normal" font-variant="normal" font-weight="normal" letter-spacing="0" word-spacing="0" style="line-height:125%;-inkscape-font-specification:MrsEavesSmallCaps"/></g></g></svg>