<svg xmlns="http://www.w3.org/2000/svg" xmlns:svg="http://www.w3.org/2000/svg" xmlns:xlink="http://www.w3.org/1999/xlink" id="svg3377" width="63.936" height="63.845" version="1.1"><defs id="defs3379"><linearGradient id="linearGradient3872" x1="61.959" x2="6.223" y1="3" y2="58.091" gradientTransform="matrix(1.01883,0,0,1.01591,-0.648953,-0.463736)" gradientUnits="userSpaceOnUse" xlink:href="#linearGradient7567"/><linearGradient id="linearGradient7567"><stop id="stop7569" offset="0" stop-color="#9bdfee" stop-opacity="1"/><stop id="stop7571" offset="1" stop-color="#66b7c9" stop-opacity="1"/></linearGradient><linearGradient id="linearGradient3190" x1="61.959" x2="6.223" y1="3" y2="58.091" gradientTransform="matrix(1.01883,0,0,1.01591,-0.648953,-0.463736)" gradientUnits="userSpaceOnUse" xlink:href="#linearGradient7567"/></defs><metadata id="metadata3382"/><g id="layer1" transform="translate(-343.03215,-500.43979)"><g id="g4060" display="inline" transform="translate(343,500.31673)"><rect id="rect4062" width="63.936" height="63.845" x=".032" y=".123" fill="url(#linearGradient3190)" fill-opacity="1" stroke="none" ry="2.993"/></g><path id="path3929" fill="#fff" fill-opacity="1" stroke="none" d="m 379.18745,519.52436 3.14,1.33655 4.07123,6.86304 -3.09359,14.31892 c 0,0 -17.14734,2.29809 -17.05895,1.94454 0.0884,-0.35355 -1.94455,-14.14214 -1.94455,-14.14214 l 11.13693,-7.24784 z" display="inline"/><path id="path3915" fill="#000" fill-opacity="1" stroke="none" d="m 374.875,518.69173 c -8.5424,-0.0722 -15.51981,6.65292 -15.59375,15 l 0,0.0625 c -0.0381,8.32262 6.79536,15.11547 15.3125,15.1875 8.5424,0.0722 15.55107,-6.62168 15.625,-14.96875 0.007,-0.73287 -0.15293,-1.07513 -0.25,-1.78125 4.88978,-1.34158 7.84463,-8.2711 3.78125,-7.15625 -4.61674,0 -7.71326,-2.34218 -11.40625,-4.1875 l 0,12.46875 c 0.002,0.0204 -10e-4,0.0421 0,0.0625 0.17314,2.88773 -2.14063,5.91145 -5.6875,7.125 -4.04157,1.38281 -8.1656,-0.11172 -9.21875,-3.3125 -1.03932,-3.21611 1.41519,-6.95684 5.46875,-8.34375 2.30828,-0.78977 4.63361,-0.64276 6.40625,0.21875 l 0,-9.5 c -1.33672,-0.44731 -2.78779,-0.78033 -4.4375,-0.875 z" display="inline"/></g></svg>